<svg id="svg" version="1.1" xmlns="http://www.w3.org/2000/svg" xmlns:xlink="http://www.w3.org/1999/xlink" width="400" height="299.8941798941799" viewBox="0, 0, 400,299.8941798941799"><g id="svgg"><path id="path0" d="M71.464 120.353 C 71.285 120.531,71.277 129.793,71.455 130.257 C 71.528 130.447,72.028 130.827,72.566 131.103 C 77.698 133.732,77.623 141.429,72.442 143.937 C 71.220 144.528,71.298 143.236,71.367 161.799 C 71.428 178.149,71.433 178.316,71.881 179.285 C 72.408 180.424,73.612 181.821,74.586 182.423 C 75.171 182.785,117.505 194.286,118.251 194.286 C 118.637 194.286,118.640 183.641,118.254 183.332 C 118.108 183.216,110.608 181.147,101.587 178.735 C 84.367 174.131,84.580 174.194,84.238 173.554 C 84.094 173.285,84.021 164.860,84.021 148.386 C 84.021 134.766,83.946 123.576,83.854 123.519 C 83.716 123.434,71.834 120.212,71.659 120.212 C 71.629 120.212,71.541 120.275,71.464 120.353 " stroke="none" fill="#fbfbfb" fill-rule="evenodd"></path><path id="path1" d="M73.862 96.032 C 72.192 96.866,71.816 100.106,73.236 101.429 C 74.686 102.780,77.750 102.385,78.571 100.741 C 79.397 99.087,78.839 96.721,77.460 96.032 C 77.052 95.828,76.245 95.662,75.661 95.662 C 75.077 95.662,74.271 95.828,73.862 96.032 M88.421 102.549 C 88.358 102.612,88.032 102.713,87.698 102.772 C 86.533 102.979,84.852 104.417,84.261 105.714 C 83.437 107.521,83.268 111.299,83.980 112.010 C 84.248 112.278,90.556 114.057,104.122 117.691 C 128.278 124.161,128.211 124.131,130.441 129.570 L 130.899 130.688 131.005 158.655 C 131.123 189.856,130.987 187.295,132.549 187.588 C 132.922 187.658,133.894 187.905,134.709 188.137 C 139.030 189.368,142.384 188.121,143.690 184.798 L 144.134 183.670 144.078 153.158 L 144.021 122.646 143.329 121.042 C 142.642 119.452,141.008 117.181,140.230 116.739 C 140.008 116.612,139.654 116.345,139.445 116.146 C 138.740 115.475,136.430 114.466,135.026 114.215 C 134.735 114.162,133.831 113.929,133.016 113.696 C 132.201 113.463,130.915 113.106,130.159 112.903 C 127.329 112.142,125.790 111.723,124.762 111.431 C 124.180 111.266,123.466 111.089,123.175 111.038 C 122.884 110.987,121.979 110.755,121.164 110.522 C 120.349 110.289,119.063 109.932,118.307 109.728 C 115.477 108.968,113.938 108.548,112.910 108.256 C 112.328 108.091,111.614 107.915,111.323 107.864 C 111.032 107.812,110.127 107.580,109.312 107.347 C 108.497 107.114,107.212 106.757,106.455 106.554 C 103.590 105.784,102.083 105.372,101.058 105.081 C 100.476 104.916,99.695 104.728,99.323 104.664 C 98.951 104.600,98.403 104.456,98.107 104.343 C 97.401 104.075,94.535 103.335,92.275 102.837 C 90.533 102.454,88.657 102.313,88.421 102.549 M248.466 137.042 C 248.466 137.102,248.090 139.031,247.630 141.327 C 246.840 145.278,246.120 148.945,243.611 161.799 C 243.021 164.825,242.349 168.226,242.119 169.357 C 241.540 172.198,241.391 172.053,244.831 172.001 L 247.720 171.958 247.990 170.476 C 248.139 169.661,248.542 167.376,248.886 165.397 C 249.616 161.195,250.277 157.472,250.624 155.612 C 250.901 154.125,250.779 154.030,251.924 156.614 C 252.207 157.254,252.641 158.225,252.886 158.771 C 253.132 159.318,253.333 159.809,253.333 159.862 C 253.333 159.915,253.733 160.801,254.221 161.831 C 254.709 162.861,255.120 163.751,255.133 163.810 C 255.147 163.868,255.334 164.296,255.549 164.762 C 255.764 165.228,255.957 165.656,255.977 165.714 C 256.067 165.971,256.534 167.067,256.949 167.990 C 257.196 168.543,257.545 169.328,257.722 169.735 C 257.900 170.143,258.218 170.857,258.430 171.323 C 258.641 171.788,258.912 172.431,259.031 172.751 C 259.394 173.722,260.125 173.535,260.681 172.328 C 261.350 170.879,262.601 168.124,263.204 166.772 C 263.489 166.132,263.865 165.349,264.040 165.032 C 264.214 164.714,264.355 164.406,264.354 164.347 C 264.352 164.287,264.555 163.785,264.804 163.230 C 265.053 162.676,265.271 162.175,265.290 162.116 C 265.308 162.058,265.683 161.249,266.123 160.317 C 266.563 159.386,267.206 158.005,267.552 157.249 C 267.898 156.492,268.349 155.523,268.554 155.095 L 268.926 154.317 269.197 156.047 C 269.346 156.999,269.509 158.063,269.559 158.413 C 270.422 164.366,271.730 171.711,271.953 171.849 C 272.486 172.178,277.453 172.117,277.583 171.779 C 277.682 171.520,277.126 167.926,276.399 164.127 C 276.287 163.545,276.055 162.259,275.883 161.270 C 275.711 160.280,275.425 158.661,275.247 157.672 C 275.069 156.683,274.204 151.752,273.326 146.715 C 272.448 141.679,271.675 137.417,271.609 137.244 C 271.312 136.471,270.331 137.285,269.947 138.624 C 269.879 138.862,268.104 142.586,267.778 143.175 C 267.585 143.524,267.443 143.832,267.464 143.860 C 267.484 143.887,267.297 144.364,267.048 144.918 C 266.799 145.472,266.581 145.974,266.564 146.032 C 266.547 146.090,266.189 146.852,265.770 147.725 C 265.096 149.127,264.335 150.808,264.237 151.111 C 264.147 151.389,262.373 155.102,262.064 155.661 C 261.871 156.011,261.741 156.296,261.775 156.296 C 261.809 156.296,261.447 157.124,260.971 158.135 C 260.495 159.147,260.106 160.075,260.106 160.199 C 260.106 160.705,259.740 160.368,259.373 159.524 C 259.158 159.029,258.751 158.101,258.470 157.460 C 258.188 156.820,257.832 156.011,257.679 155.661 C 257.526 155.312,257.134 154.455,256.810 153.757 C 256.485 153.058,256.205 152.439,256.187 152.381 C 256.126 152.178,255.668 151.103,255.219 150.105 C 254.970 149.553,254.580 148.672,254.352 148.148 C 253.589 146.394,253.382 145.933,252.788 144.656 C 252.464 143.958,252.183 143.339,252.166 143.280 C 252.107 143.087,251.655 142.021,251.246 141.110 C 250.761 140.033,250.116 138.562,249.714 137.619 C 249.463 137.030,248.466 136.569,248.466 137.042 M210.154 138.889 C 209.758 139.733,209.425 140.471,209.414 140.529 C 209.403 140.587,208.937 141.587,208.380 142.751 C 207.822 143.915,207.033 145.582,206.626 146.455 C 206.219 147.328,205.711 148.390,205.497 148.815 C 205.283 149.240,205.165 149.645,205.235 149.714 C 205.305 149.784,205.250 149.841,205.115 149.841 C 204.979 149.841,204.868 149.942,204.868 150.065 C 204.868 150.188,204.575 150.878,204.217 151.599 C 203.860 152.320,203.574 152.934,203.582 152.963 C 203.591 152.992,203.291 153.659,202.916 154.444 C 202.540 155.230,202.225 155.921,202.216 155.979 C 202.206 156.037,201.741 157.037,201.184 158.201 C 200.626 159.365,199.837 161.032,199.430 161.905 C 199.023 162.778,198.515 163.840,198.301 164.265 C 198.087 164.690,197.969 165.095,198.039 165.164 C 198.109 165.234,198.055 165.291,197.919 165.291 C 197.783 165.291,197.672 165.392,197.672 165.515 C 197.672 165.637,197.379 166.328,197.022 167.049 C 196.664 167.770,196.378 168.384,196.386 168.413 C 196.395 168.442,196.109 169.084,195.752 169.840 C 194.730 172.003,194.789 172.054,198.248 172.001 L 201.130 171.958 201.570 171.108 C 201.991 170.297,202.818 168.477,202.868 168.254 C 202.881 168.196,203.310 167.267,203.821 166.190 L 204.752 164.233 211.107 164.233 L 217.463 164.233 217.756 164.921 C 217.917 165.299,218.216 165.989,218.418 166.455 C 218.621 166.921,219.147 168.159,219.587 169.206 C 220.782 172.055,220.719 172.011,223.678 172.050 C 227.231 172.096,227.355 171.989,226.311 169.775 C 225.998 169.113,225.728 168.524,225.711 168.466 C 225.634 168.211,225.182 167.194,224.535 165.820 C 224.151 165.005,223.823 164.291,223.805 164.233 C 223.715 163.938,223.356 163.128,222.680 161.693 C 222.269 160.820,221.918 160.058,221.901 160.000 C 221.820 159.729,221.305 158.525,220.858 157.566 C 220.587 156.984,220.154 156.032,219.894 155.450 C 219.381 154.299,218.780 152.982,217.865 151.005 C 217.542 150.307,217.263 149.688,217.245 149.630 C 217.153 149.332,216.794 148.522,216.119 147.090 C 215.708 146.217,215.357 145.455,215.340 145.397 C 215.260 145.127,214.744 143.923,214.298 142.963 C 214.027 142.381,213.553 141.333,213.243 140.635 C 211.443 136.571,211.285 136.481,210.154 138.889 M329.418 138.760 C 328.401 138.905,326.282 139.715,325.806 140.139 C 325.566 140.354,325.275 140.529,325.160 140.529 C 324.946 140.529,322.963 142.507,322.963 142.721 C 322.963 142.785,322.736 143.172,322.459 143.580 C 321.277 145.323,321.344 151.534,322.545 151.534 C 322.643 151.534,322.785 151.731,322.861 151.970 C 322.984 152.358,324.361 153.826,325.132 154.392 C 325.873 154.936,327.639 155.940,327.831 155.926 C 327.889 155.921,328.487 156.170,329.160 156.478 C 329.832 156.785,330.445 157.037,330.522 157.037 C 330.809 157.037,333.583 158.557,333.927 158.903 C 338.406 163.410,332.491 169.871,327.691 165.714 C 327.008 165.122,326.138 163.285,326.138 162.434 C 326.138 161.562,325.783 161.069,325.237 161.179 C 324.976 161.231,324.476 161.324,324.127 161.385 C 323.778 161.446,323.206 161.580,322.857 161.683 C 322.508 161.786,321.770 161.932,321.217 162.006 L 320.212 162.142 320.212 163.074 C 320.212 165.163,322.677 170.159,323.707 170.159 C 323.855 170.159,324.028 170.294,324.091 170.459 C 324.641 171.892,330.867 173.000,333.862 172.199 C 336.124 171.594,340.450 168.347,339.989 167.601 C 339.923 167.495,339.947 167.407,340.042 167.407 C 340.630 167.407,341.371 164.394,341.373 161.991 C 341.377 158.592,340.347 156.243,338.086 154.494 C 337.006 153.659,336.296 153.214,336.293 153.372 C 336.291 153.467,336.220 153.443,336.134 153.319 C 335.945 153.044,334.415 152.330,330.971 150.909 C 330.079 150.541,329.136 150.055,328.875 149.829 C 328.614 149.603,328.320 149.418,328.222 149.418 C 328.123 149.418,328.042 149.287,328.042 149.126 C 328.042 148.966,327.909 148.724,327.745 148.588 C 327.222 148.154,327.446 146.610,328.158 145.755 C 329.983 143.561,333.542 143.803,335.148 146.229 C 335.943 147.431,336.298 147.450,338.100 146.389 C 340.504 144.973,340.529 144.953,340.529 144.415 C 340.529 142.805,336.767 139.506,334.268 138.925 C 333.502 138.747,330.275 138.637,329.418 138.760 M163.923 139.459 C 163.652 139.896,163.804 171.717,164.077 171.891 C 164.425 172.112,182.251 172.106,182.599 171.885 C 182.802 171.756,182.856 171.045,182.811 169.084 L 182.751 166.455 176.138 166.399 L 169.524 166.343 169.524 152.801 L 169.524 139.259 166.785 139.259 C 165.279 139.259,163.991 139.349,163.923 139.459 M296.296 155.327 C 296.296 164.164,296.350 171.534,296.416 171.706 C 296.565 172.094,301.116 172.217,301.800 171.851 C 302.389 171.536,302.470 139.611,301.882 139.386 C 301.701 139.316,300.370 139.259,298.924 139.259 L 296.296 139.259 296.296 155.327 M211.572 150.635 C 211.733 151.092,212.335 152.475,212.952 153.810 C 213.208 154.362,213.431 154.862,213.447 154.921 C 213.478 155.035,213.536 155.174,214.413 157.249 L 214.994 158.624 212.989 158.685 C 211.886 158.718,210.137 158.718,209.104 158.685 L 207.224 158.624 207.686 157.658 C 208.231 156.517,208.972 154.859,209.004 154.709 C 209.017 154.651,209.388 153.841,209.829 152.910 C 210.270 151.979,210.713 151.003,210.813 150.741 C 211.030 150.172,211.392 150.122,211.572 150.635 " stroke="none" fill="#537ceb" fill-rule="evenodd"></path><path id="path2" d="M83.668 111.952 C 83.975 112.407,84.021 113.184,84.021 117.918 C 84.021 120.936,84.106 123.414,84.213 123.480 C 84.318 123.545,90.620 125.265,98.217 127.303 C 107.832 129.881,112.324 131.179,112.999 131.573 C 114.404 132.392,116.413 134.511,117.194 135.996 C 118.573 138.620,118.519 137.573,118.519 161.394 C 118.519 178.443,118.574 183.060,118.783 183.220 C 118.929 183.331,121.667 184.118,124.868 184.967 C 128.898 186.037,130.838 186.649,131.177 186.956 L 131.666 187.400 131.337 186.769 C 131.044 186.207,131.008 183.114,131.007 158.805 C 131.005 127.968,131.125 130.238,129.352 127.495 C 126.950 123.779,127.174 123.866,104.134 117.694 C 88.485 113.503,84.281 112.305,83.854 111.917 L 83.314 111.429 83.668 111.952 M67.302 130.568 C 61.059 132.474,60.284 140.873,66.077 143.838 C 70.514 146.110,76.067 142.564,76.067 137.460 C 76.067 132.996,71.391 129.320,67.302 130.568 " stroke="none" fill="#14bce3" fill-rule="evenodd"></path><path id="path3" d="M62.384 105.202 C 60.264 105.776,58.333 109.423,59.442 110.759 C 59.643 111.001,59.683 111.127,59.683 111.518 C 59.683 113.101,63.593 114.445,65.671 113.576 C 68.440 112.420,69.010 107.511,66.563 105.908 C 65.510 105.218,63.549 104.887,62.384 105.202 M83.386 110.385 C 83.386 111.408,83.338 111.548,83.016 111.451 C 82.812 111.390,82.407 111.297,82.116 111.245 C 81.825 111.193,81.341 111.054,81.041 110.938 C 75.525 108.794,71.158 111.454,70.940 117.090 C 70.839 119.713,71.185 119.528,68.042 118.639 C 63.262 117.287,59.724 118.613,58.672 122.149 C 58.324 123.318,58.388 183.418,58.738 184.381 C 58.920 184.881,59.094 185.386,59.124 185.503 C 59.320 186.254,59.527 186.667,59.709 186.667 C 59.825 186.667,59.870 186.746,59.810 186.843 C 59.665 187.078,60.632 188.484,61.048 188.644 C 61.228 188.713,61.376 188.904,61.376 189.068 C 61.376 189.735,64.890 191.938,66.455 192.253 C 67.511 192.465,68.293 192.672,68.783 192.867 C 69.069 192.981,73.659 194.215,74.479 194.398 C 74.664 194.440,75.507 194.670,76.353 194.910 C 77.198 195.151,78.246 195.404,78.681 195.473 C 79.115 195.542,79.661 195.700,79.894 195.824 C 80.127 195.949,80.317 196.028,80.317 196.001 C 80.317 195.974,80.460 196.000,80.635 196.060 C 80.964 196.172,85.740 197.441,86.331 197.573 C 86.516 197.614,87.359 197.845,88.205 198.085 C 89.050 198.325,90.098 198.578,90.533 198.647 C 90.967 198.716,91.466 198.848,91.640 198.940 C 91.894 199.074,96.876 200.449,98.201 200.750 C 98.376 200.790,99.211 201.019,100.056 201.260 C 100.902 201.500,101.950 201.753,102.384 201.822 C 102.819 201.890,103.269 202.005,103.385 202.076 C 105.417 203.325,114.992 204.760,115.292 203.861 C 115.340 203.715,115.464 203.647,115.566 203.710 C 115.668 203.773,115.938 203.639,116.165 203.412 C 116.392 203.184,116.623 203.043,116.678 203.097 C 116.832 203.252,118.089 201.642,117.967 201.445 C 117.907 201.349,117.951 201.270,118.063 201.270 C 118.510 201.270,118.942 199.275,118.942 197.207 C 118.942 194.808,118.599 194.979,121.693 195.838 C 123.500 196.340,126.526 196.581,127.035 196.263 C 127.182 196.172,127.489 196.068,127.718 196.032 C 128.322 195.938,129.096 195.402,130.000 194.451 C 130.730 193.683,130.887 193.396,130.819 192.963 C 130.805 192.876,130.881 192.804,130.988 192.804 C 131.697 192.804,131.885 187.591,131.198 186.964 C 130.595 186.414,118.898 183.247,118.680 183.575 C 118.595 183.704,118.524 186.214,118.522 189.153 C 118.520 192.093,118.472 194.497,118.416 194.497 C 118.142 194.497,76.179 183.225,75.414 182.946 C 74.206 182.505,72.809 181.223,72.056 179.864 L 71.429 178.730 71.323 161.632 L 71.217 144.535 69.206 144.483 C 59.761 144.238,59.761 130.683,69.206 130.438 L 71.217 130.386 71.274 125.299 L 71.330 120.212 71.803 120.216 C 72.063 120.219,74.847 120.919,77.989 121.773 C 81.132 122.627,83.775 123.286,83.862 123.237 C 84.135 123.087,84.053 112.624,83.775 112.104 C 83.639 111.851,83.551 111.095,83.578 110.425 C 83.605 109.755,83.573 109.206,83.507 109.206 C 83.441 109.206,83.386 109.737,83.386 110.385 M84.162 123.739 C 83.924 123.977,83.998 172.076,84.238 172.940 C 84.355 173.364,84.576 173.814,84.728 173.940 C 84.932 174.109,113.729 181.941,117.937 182.972 L 118.519 183.115 118.519 161.443 C 118.519 137.568,118.573 138.620,117.194 135.996 C 116.413 134.511,114.404 132.392,112.999 131.573 C 112.279 131.153,85.143 123.598,84.354 123.598 C 84.326 123.598,84.240 123.661,84.162 123.739 M163.698 155.661 C 163.698 164.392,163.725 167.994,163.757 163.666 C 163.788 159.339,163.789 152.196,163.757 147.793 C 163.725 143.391,163.698 146.931,163.698 155.661 " stroke="none" fill="#24f3cc" fill-rule="evenodd"></path><path id="path4" d="M71.234 130.342 C 71.037 130.662,70.952 130.587,72.349 131.335 C 77.342 134.011,77.304 140.997,72.283 143.621 C 71.102 144.238,70.936 144.417,71.323 144.656 C 71.439 144.728,71.534 144.695,71.534 144.582 C 71.534 144.469,71.943 144.179,72.442 143.937 C 77.627 141.427,77.697 133.732,72.559 131.100 C 72.017 130.822,71.535 130.478,71.487 130.334 C 71.419 130.131,71.364 130.132,71.234 130.342 M84.039 172.834 C 84.029 173.083,84.188 173.468,84.392 173.690 C 84.595 173.912,84.684 173.977,84.588 173.833 C 84.493 173.689,84.335 173.304,84.236 172.976 C 84.091 172.494,84.054 172.467,84.039 172.834 M73.228 181.481 C 73.622 181.889,73.993 182.222,74.051 182.222 C 74.109 182.222,73.834 181.889,73.439 181.481 C 73.044 181.074,72.674 180.741,72.615 180.741 C 72.557 180.741,72.833 181.074,73.228 181.481 M118.095 183.149 C 118.095 183.193,118.238 183.347,118.413 183.492 C 118.673 183.708,118.730 183.693,118.730 183.412 C 118.730 183.223,118.587 183.069,118.413 183.069 C 118.238 183.069,118.095 183.105,118.095 183.149 " stroke="none" fill="#54cde9" fill-rule="evenodd"></path></g></svg>