<svg id="svg" version="1.1" xmlns="http://www.w3.org/2000/svg" xmlns:xlink="http://www.w3.org/1999/xlink" width="400" height="299.8941798941799" viewBox="0, 0, 400,299.8941798941799"><g id="svgg"><path id="path0" d="M170.159 125.450 L 170.160 130.476 171.332 131.089 C 176.398 133.736,176.389 141.196,171.317 143.838 L 170.152 144.444 170.208 161.587 L 170.265 178.730 170.750 179.638 C 172.233 182.417,171.143 182.024,195.321 188.494 C 206.790 191.563,216.344 194.128,216.552 194.194 C 216.910 194.307,216.931 194.004,216.931 188.805 L 216.931 183.297 216.138 183.085 C 184.872 174.726,183.592 174.369,183.069 173.849 L 182.540 173.324 182.434 148.412 L 182.328 123.500 176.614 121.967 C 173.471 121.125,170.733 120.432,170.529 120.429 C 170.187 120.424,170.159 120.801,170.159 125.450 " stroke="none" fill="#fbfcfb" fill-rule="evenodd"></path><path id="path1" d="M172.487 96.032 C 169.600 97.474,170.929 102.221,174.219 102.222 C 176.488 102.223,177.567 101.144,177.566 98.875 C 177.565 96.835,176.368 95.662,174.286 95.662 C 173.702 95.662,172.896 95.828,172.487 96.032 M186.686 102.650 C 184.966 103.012,183.352 104.450,182.641 106.254 C 182.042 107.774,182.032 111.508,182.625 112.045 C 182.872 112.269,190.622 114.442,202.743 117.685 C 224.380 123.477,224.181 123.410,226.400 125.619 C 230.005 129.207,229.838 127.548,229.840 159.794 C 229.841 188.394,229.811 187.513,230.802 187.513 C 230.969 187.513,231.926 187.751,232.931 188.042 C 237.613 189.399,240.850 188.316,242.313 184.903 C 242.750 183.884,242.751 183.757,242.751 153.581 L 242.751 123.282 242.210 121.657 C 241.912 120.763,241.532 119.918,241.364 119.778 C 241.196 119.639,241.058 119.410,241.058 119.270 C 241.058 118.086,236.605 114.913,234.077 114.295 C 233.668 114.195,232.595 113.914,231.693 113.671 C 229.923 113.192,227.778 112.619,225.344 111.974 C 224.500 111.751,223.238 111.412,222.540 111.221 C 220.619 110.698,218.087 110.020,213.016 108.675 C 210.815 108.091,208.184 107.387,207.090 107.090 C 204.331 106.341,201.627 105.616,198.466 104.779 C 197.622 104.555,196.360 104.217,195.661 104.027 C 190.005 102.490,188.526 102.263,186.686 102.650 " stroke="none" fill="#537ceb" fill-rule="evenodd"></path><path id="path2" d="M182.403 112.102 C 182.567 112.415,182.646 114.317,182.646 117.963 C 182.646 120.932,182.731 123.414,182.836 123.479 C 182.941 123.544,189.107 125.221,196.540 127.207 C 203.972 129.192,210.577 131.065,211.217 131.369 C 212.774 132.107,215.153 134.527,215.959 136.191 C 217.183 138.718,217.138 137.752,217.140 161.429 C 217.142 173.447,217.167 183.282,217.196 183.283 C 218.145 183.328,229.722 186.702,229.965 187.005 C 230.273 187.389,230.278 187.386,230.065 186.945 C 229.912 186.628,229.841 178.067,229.840 159.749 C 229.838 127.554,230.004 129.206,226.400 125.619 C 224.181 123.410,224.380 123.477,202.743 117.685 C 190.022 114.281,182.874 112.273,182.594 112.025 C 182.170 111.648,182.166 111.650,182.403 112.102 M165.926 130.568 C 159.683 132.474,158.909 140.873,164.702 143.838 C 170.255 146.681,176.596 140.861,174.384 134.950 C 173.171 131.706,169.103 129.598,165.926 130.568 " stroke="none" fill="#14bce3" fill-rule="evenodd"></path><path id="path3" d="M161.008 105.200 C 158.885 105.782,156.958 109.423,158.067 110.759 C 158.267 111.001,158.307 111.127,158.307 111.518 C 158.307 112.928,163.212 114.789,163.917 113.647 C 163.991 113.529,164.135 113.485,164.239 113.549 C 164.587 113.764,166.074 112.184,166.450 111.202 C 167.823 107.605,164.720 104.182,161.008 105.200 M174.238 110.477 C 171.158 111.122,169.524 113.558,169.524 117.503 C 169.524 119.591,169.627 119.499,167.880 118.968 C 167.499 118.852,167.141 118.754,167.084 118.749 C 167.028 118.745,166.463 118.591,165.831 118.407 C 161.996 117.292,158.253 118.933,157.296 122.149 C 156.948 123.318,157.012 183.418,157.362 184.381 C 157.545 184.881,157.718 185.386,157.749 185.503 C 157.944 186.254,158.152 186.667,158.334 186.667 C 158.449 186.667,158.494 186.746,158.435 186.843 C 158.290 187.078,159.256 188.484,159.672 188.644 C 159.852 188.713,160.000 188.904,160.000 189.068 C 160.000 189.829,163.664 192.014,165.402 192.290 C 165.865 192.363,166.386 192.498,166.561 192.590 C 166.821 192.727,174.980 194.958,176.246 195.239 C 176.448 195.284,176.925 195.415,177.306 195.530 C 177.686 195.646,178.019 195.736,178.046 195.732 C 178.073 195.728,178.619 195.874,179.259 196.056 C 179.899 196.238,180.709 196.444,181.058 196.512 C 181.779 196.653,181.986 196.709,182.434 196.888 C 182.720 197.002,187.309 198.236,188.130 198.420 C 188.315 198.461,189.158 198.691,190.003 198.932 C 190.849 199.172,191.897 199.425,192.332 199.494 C 192.766 199.563,193.265 199.694,193.439 199.786 C 193.700 199.923,201.877 202.159,203.124 202.434 C 203.326 202.479,204.160 202.706,204.975 202.938 C 205.791 203.170,206.696 203.408,206.986 203.468 C 207.276 203.527,207.751 203.634,208.042 203.705 C 208.333 203.776,208.688 203.858,208.830 203.886 C 208.972 203.915,209.155 204.005,209.235 204.086 C 209.316 204.167,210.248 204.231,211.305 204.228 C 214.061 204.221,215.797 203.320,216.742 201.404 C 217.360 200.149,217.404 199.925,217.510 197.460 C 217.623 194.829,217.486 195.065,218.695 195.429 C 219.238 195.592,219.683 195.684,219.683 195.633 C 219.683 195.582,219.849 195.630,220.053 195.739 C 221.092 196.295,224.940 196.577,225.928 196.169 C 226.611 195.888,226.774 195.834,227.072 195.794 C 227.332 195.758,229.359 193.862,229.138 193.862 C 229.043 193.862,229.112 193.715,229.292 193.535 C 230.174 192.653,230.647 187.930,229.946 187.004 C 229.725 186.712,227.974 186.156,223.551 184.975 L 217.460 183.349 217.354 188.868 C 217.265 193.549,217.201 194.395,216.931 194.446 C 216.490 194.528,174.139 183.168,173.331 182.750 C 172.283 182.208,171.007 180.794,170.402 179.502 L 169.841 178.307 169.841 161.376 L 169.841 144.444 167.831 144.441 C 166.048 144.439,165.694 144.372,164.702 143.852 C 157.981 140.330,160.283 130.491,167.831 130.479 L 169.841 130.476 169.841 125.361 C 169.841 122.548,169.910 120.178,169.994 120.094 C 170.126 119.962,180.843 122.692,182.169 123.195 L 182.646 123.376 182.646 117.994 C 182.646 112.699,182.519 111.560,181.924 111.518 C 181.698 111.502,181.601 111.482,180.529 111.217 C 179.805 111.038,179.627 110.984,179.259 110.832 C 178.210 110.397,175.526 110.207,174.238 110.477 M182.857 148.348 L 182.857 173.098 183.333 173.624 C 183.744 174.077,186.055 174.748,200.188 178.521 C 209.196 180.926,216.696 182.943,216.855 183.004 C 217.278 183.166,217.279 140.105,216.856 138.519 C 216.088 135.639,213.619 132.508,211.217 131.369 C 210.371 130.968,183.558 123.598,182.944 123.598 C 182.896 123.598,182.857 134.735,182.857 148.348 " stroke="none" fill="#23f3cc" fill-rule="evenodd"></path><path id="path4" d="M169.869 120.476 C 169.686 121.160,169.712 130.220,169.897 130.493 C 169.983 130.618,170.563 130.996,171.186 131.332 C 176.063 133.962,176.021 141.072,171.113 143.620 C 169.583 144.415,169.708 142.711,169.779 161.693 L 169.841 178.307 170.402 179.502 C 171.073 180.935,172.416 182.335,173.619 182.858 C 174.965 183.443,216.699 194.551,217.048 194.417 C 217.560 194.220,217.498 183.372,216.984 183.099 C 216.780 182.991,209.233 180.933,200.212 178.526 C 186.057 174.749,183.744 174.077,183.333 173.624 L 182.857 173.098 182.857 148.259 L 182.857 123.420 181.852 123.098 C 180.572 122.688,170.458 120.000,170.194 120.000 C 170.085 120.000,169.939 120.214,169.869 120.476 M176.614 121.967 L 182.328 123.500 182.434 148.412 L 182.540 173.324 183.069 173.849 C 183.592 174.369,184.872 174.726,216.138 183.085 L 216.931 183.297 216.931 188.805 C 216.931 194.004,216.910 194.307,216.552 194.194 C 216.344 194.128,206.790 191.563,195.321 188.494 C 171.143 182.024,172.233 182.417,170.750 179.638 L 170.265 178.730 170.208 161.587 L 170.152 144.444 171.317 143.838 C 176.389 141.196,176.398 133.736,171.332 131.089 L 170.160 130.476 170.159 125.450 C 170.159 120.801,170.187 120.424,170.529 120.429 C 170.733 120.432,173.471 121.125,176.614 121.967 " stroke="none" fill="#79ece4" fill-rule="evenodd"></path></g></svg>